<svg width="144" height="144" viewBox="0 0 144 144" fill="none" xmlns="http://www.w3.org/2000/svg">
<path d="M57.75 126C52.65 126 48.325 124.1 44.775 120.3C41.225 116.5 39.2 112.2 38.7 107.4C32.8 106.9 27.875 104.425 23.925 99.975C19.975 95.525 18 90.1 18 83.7C18 81.5 18.275 79.375 18.825 77.325C19.375 75.275 20.2 73.3 21.3 71.4C20.2 69.6 19.375 67.7 18.825 65.7C18.275 63.7 18 61.55 18 59.25C18 53.25 20.075 48.1 24.225 43.8C28.375 39.5 33.3 37 39 36.3C39.2 31.2 41.125 26.875 44.775 23.325C48.425 19.775 52.8 18 57.9 18C60.8 18 63.375 18.525 65.625 19.575C67.875 20.625 70 22.15 72 24.15C74 22.15 76.1 20.625 78.3 19.575C80.5 18.525 83.05 18 85.95 18C90.95 18 95.25 19.775 98.85 23.325C102.45 26.875 104.4 31.2 104.7 36.3C110.5 36.8 115.5 39.225 119.7 43.575C123.9 47.925 126 53.15 126 59.25C126 61.55 125.7 63.725 125.1 65.775C124.5 67.825 123.65 69.75 122.55 71.55C123.65 73.55 124.5 75.65 125.1 77.85C125.7 80.05 126 82.2 126 84.3C126 90.7 124.025 96.025 120.075 100.275C116.125 104.525 111.2 106.9 105.3 107.4C104.8 112.2 102.75 116.5 99.15 120.3C95.55 124.1 91.25 126 86.25 126C83.25 126 80.65 125.5 78.45 124.5C76.25 123.5 74.1 122 72 120C69.9 122 67.75 123.5 65.55 124.5C63.35 125.5 60.75 126 57.75 126ZM76.5 36V108C76.5 110.5 77.475 112.625 79.425 114.375C81.375 116.125 83.7 117 86.4 117C89 117 91.25 115.85 93.15 113.55C95.05 111.25 96.1 108.9 96.3 106.5C94 105.7 91.85 104.625 89.85 103.275C87.85 101.925 86.15 100.25 84.75 98.25C83.95 97.15 83.65 96.025 83.85 94.875C84.05 93.725 84.7 92.75 85.8 91.95C86.9 91.15 88.025 90.85 89.175 91.05C90.325 91.25 91.3 91.9 92.1 93C93.4 94.8 95 96.175 96.9 97.125C98.8 98.075 100.9 98.55 103.2 98.55C107 98.55 110.25 97.25 112.95 94.65C115.65 92.05 117 88.6 117 84.3C117 83.4 116.9 82.475 116.7 81.525C116.5 80.575 116.3 79.6 116.1 78.6C114.3 79.9 112.325 80.875 110.175 81.525C108.025 82.175 105.8 82.5 103.5 82.5C102.2 82.5 101.125 82.075 100.275 81.225C99.425 80.375 99 79.3 99 78C99 76.7 99.425 75.625 100.275 74.775C101.125 73.925 102.2 73.5 103.5 73.5C107.3 73.5 110.5 72.1 113.1 69.3C115.7 66.5 117 63.15 117 59.25C117 55.45 115.6 52.2 112.8 49.5C110 46.8 106.8 45.35 103.2 45.15C102.2 47.55 100.775 49.675 98.925 51.525C97.075 53.375 94.95 54.75 92.55 55.65C91.35 56.15 90.2 56.125 89.1 55.575C88 55.025 87.25 54.15 86.85 52.95C86.45 51.75 86.5 50.575 87 49.425C87.5 48.275 88.35 47.5 89.55 47.1C91.35 46.5 92.825 45.3 93.975 43.5C95.125 41.7 95.7 39.65 95.7 37.35C95.7 34.45 94.75 32 92.85 30C90.95 28 88.7 27 86.1 27C83.5 27 81.25 27.875 79.35 29.625C77.45 31.375 76.5 33.5 76.5 36ZM67.5 108V36C67.5 33.5 66.575 31.375 64.725 29.625C62.875 27.875 60.6 27 57.9 27C55.3 27 53.025 28 51.075 30C49.125 32 48.15 34.45 48.15 37.35C48.15 39.65 48.7 41.675 49.8 43.425C50.9 45.175 52.35 46.35 54.15 46.95C55.35 47.35 56.225 48.125 56.775 49.275C57.325 50.425 57.4 51.55 57 52.65C56.5 53.85 55.675 54.75 54.525 55.35C53.375 55.95 52.2 56 51 55.5C48.6 54.7 46.5 53.375 44.7 51.525C42.9 49.675 41.5 47.55 40.5 45.15C37 45.45 33.875 46.925 31.125 49.575C28.375 52.225 27 55.45 27 59.25C27 63.15 28.3 66.5 30.9 69.3C33.5 72.1 36.7 73.5 40.5 73.5C41.8 73.5 42.875 73.925 43.725 74.775C44.575 75.625 45 76.7 45 78C45 79.3 44.575 80.375 43.725 81.225C42.875 82.075 41.8 82.5 40.5 82.5C38.2 82.5 35.975 82.15 33.825 81.45C31.675 80.75 29.7 79.8 27.9 78.6C27.6 79.4 27.375 80.25 27.225 81.15C27.075 82.05 27 82.95 27 83.85C27 88.15 28.325 91.675 30.975 94.425C33.625 97.175 36.85 98.55 40.65 98.55C42.85 98.55 44.925 98.05 46.875 97.05C48.825 96.05 50.45 94.7 51.75 93C52.55 92 53.55 91.375 54.75 91.125C55.95 90.875 57.05 91.15 58.05 91.95C59.05 92.75 59.675 93.75 59.925 94.95C60.175 96.15 59.9 97.25 59.1 98.25C57.7 100.25 56.025 101.925 54.075 103.275C52.125 104.625 50 105.7 47.7 106.5C47.9 108.9 48.95 111.25 50.85 113.55C52.75 115.85 55.05 117 57.75 117C60.45 117 62.75 116.125 64.65 114.375C66.55 112.625 67.5 110.5 67.5 108Z" fill="#FF9800"/>
</svg>
